<svg version="1.1" id="Layer_1" xmlns="http://www.w3.org/2000/svg" xmlns:xlink="http://www.w3.org/1999/xlink" x="0px" y="0px"
	 width="100%" viewBox="0 0 383 65" enable-background="new 0 0 383 65" xml:space="preserve">
<path fill="#FCFCFC" opacity="1.000000" stroke="none" 
	d="
M37.000000,1.000000 
	C112.354225,1.000000 187.708450,1.000000 263.828064,1.326937 
	C262.292023,10.473029 259.990601,19.292187 257.681152,28.142130 
	C244.996002,22.592196 234.590454,26.721922 229.396454,39.568695 
	C227.992752,43.040546 227.789078,46.980560 226.785248,50.637238 
	C226.147751,52.959515 225.453644,55.471516 224.021286,57.300320 
	C223.016098,58.583729 220.723373,58.858719 219.005630,59.584034 
	C218.331467,57.849045 217.435181,56.159332 217.068726,54.361618 
	C216.857880,53.327377 217.494980,52.115894 217.767365,50.988289 
	C218.976456,45.982712 220.572723,41.034225 221.313095,35.960621 
	C222.356232,28.812233 217.603271,24.295734 210.525986,25.612879 
	C207.508331,26.174490 204.699982,27.844749 201.780838,28.970545 
	C201.378403,29.125746 200.885162,29.045483 200.393341,29.076815 
	C200.575714,27.764624 200.739609,26.585480 200.896393,25.457542 
	C196.852570,25.457542 193.086792,25.457542 189.339935,25.457542 
	C186.779205,34.878315 184.673340,44.148041 181.583664,53.077351 
	C180.639862,55.805046 176.430496,59.824127 174.692062,59.385536 
	C170.122757,58.232754 172.101654,53.869320 172.948547,50.555435 
	C175.075623,42.232220 177.243942,33.919540 179.435806,25.447723 
	C175.108322,25.447723 171.341782,25.447723 167.469238,25.447723 
	C165.241745,33.874851 163.291733,42.121639 160.807297,50.204163 
	C159.872360,53.245739 158.150208,56.336594 155.969666,58.626881 
	C153.502716,61.217991 150.432770,59.652802 150.235733,55.995197 
	C150.157593,54.544712 150.573166,53.038723 150.929489,51.598969 
	C152.166382,46.601242 153.727142,41.669910 154.699615,36.623688 
	C156.202866,28.823111 150.949539,23.797297 143.274292,25.929747 
	C139.648270,26.937183 136.388168,29.261707 132.906387,31.017658 
	C127.741211,21.783133 120.633018,25.416340 113.518074,29.088068 
	C113.689705,27.569586 113.809097,26.513224 113.933540,25.412186 
	C109.893913,25.412186 106.130142,25.412186 102.263046,25.412186 
	C100.055496,33.818882 97.985817,42.037415 95.723175,50.202477 
	C94.129105,55.954880 87.285316,60.279358 81.449585,59.473412 
	C75.347878,58.630726 72.031944,54.799179 71.904381,49.628754 
	C77.417122,47.257702 82.987305,45.738384 87.420135,42.608337 
	C89.861618,40.884403 91.914566,36.150253 91.353401,33.327789 
	C90.795525,30.521833 87.097275,27.694847 84.112526,26.220495 
	C81.714081,25.035759 78.205017,25.298067 75.396706,25.895594 
	C67.168808,27.646246 60.463360,36.783321 59.863518,46.358410 
	C59.248432,56.176880 62.508156,61.191612 71.975143,65.058372 
	C72.377792,65.222832 72.661095,65.679474 73.000000,66.000000 
	C64.979103,66.000000 56.958202,66.000000 48.559063,65.656662 
	C49.922665,64.118347 51.664509,62.923378 52.440800,62.390812 
	C49.273438,59.449242 46.544441,57.161171 44.113728,54.591007 
	C41.455681,51.780468 39.073437,48.709087 36.864754,46.098591 
	C46.957638,42.829079 53.411015,37.981045 57.523823,30.174768 
	C63.315598,19.181753 59.892868,9.360929 48.426369,4.657608 
	C44.738037,3.144732 40.815430,2.203015 37.000000,1.000000 
M172.192505,7.816286 
	C169.506927,10.251244 168.850937,13.109325 170.862823,16.186634 
	C172.862930,19.245934 175.870636,20.071676 179.046753,18.386265 
	C182.355804,16.630304 183.798920,13.649529 181.946777,10.079060 
	C179.943985,6.218101 176.719162,5.333227 172.192505,7.816286 
z"/>
<path fill="#070707" opacity="1.000000" stroke="none" 
	d="
M73.437500,66.000000 
	C72.661095,65.679474 72.377792,65.222832 71.975143,65.058372 
	C62.508156,61.191612 59.248432,56.176880 59.863518,46.358410 
	C60.463360,36.783321 67.168808,27.646246 75.396706,25.895594 
	C78.205017,25.298067 81.714081,25.035759 84.112526,26.220495 
	C87.097275,27.694847 90.795525,30.521833 91.353401,33.327789 
	C91.914566,36.150253 89.861618,40.884403 87.420135,42.608337 
	C82.987305,45.738384 77.417122,47.257702 71.904381,49.628754 
	C72.031944,54.799179 75.347878,58.630726 81.449585,59.473412 
	C87.285316,60.279358 94.129105,55.954880 95.723175,50.202477 
	C97.985817,42.037415 100.055496,33.818882 102.263046,25.412186 
	C106.130142,25.412186 109.893913,25.412186 113.933540,25.412186 
	C113.809097,26.513224 113.689705,27.569586 113.518074,29.088068 
	C120.633018,25.416340 127.741211,21.783133 132.906387,31.017658 
	C136.388168,29.261707 139.648270,26.937183 143.274292,25.929747 
	C150.949539,23.797297 156.202866,28.823111 154.699615,36.623688 
	C153.727142,41.669910 152.166382,46.601242 150.929489,51.598969 
	C150.573166,53.038723 150.157593,54.544712 150.235733,55.995197 
	C150.432770,59.652802 153.502716,61.217991 155.969666,58.626881 
	C158.150208,56.336594 159.872360,53.245739 160.807297,50.204163 
	C163.291733,42.121639 165.241745,33.874851 167.469238,25.447723 
	C171.341782,25.447723 175.108322,25.447723 179.435806,25.447723 
	C177.243942,33.919540 175.075623,42.232220 172.948547,50.555435 
	C172.101654,53.869320 170.122757,58.232754 174.692062,59.385536 
	C176.430496,59.824127 180.639862,55.805046 181.583664,53.077351 
	C184.673340,44.148041 186.779205,34.878315 189.339935,25.457542 
	C193.086792,25.457542 196.852570,25.457542 200.896393,25.457542 
	C200.739609,26.585480 200.575714,27.764624 200.393341,29.076815 
	C200.885162,29.045483 201.378403,29.125746 201.780838,28.970545 
	C204.699982,27.844749 207.508331,26.174490 210.525986,25.612879 
	C217.603271,24.295734 222.356232,28.812233 221.313095,35.960621 
	C220.572723,41.034225 218.976456,45.982712 217.767365,50.988289 
	C217.494980,52.115894 216.857880,53.327377 217.068726,54.361618 
	C217.435181,56.159332 218.331467,57.849045 219.005630,59.584034 
	C220.723373,58.858719 223.016098,58.583729 224.021286,57.300320 
	C225.453644,55.471516 226.147751,52.959515 226.785248,50.637238 
	C227.789078,46.980560 227.992752,43.040546 229.396454,39.568695 
	C234.590454,26.721922 244.996002,22.592196 257.681152,28.142130 
	C259.990601,19.292187 262.292023,10.473029 264.296692,1.326937 
	C267.692902,1.000000 271.385834,1.000000 275.844238,1.326429 
	C272.310272,18.159626 268.001801,34.664070 263.727173,51.177280 
	C263.357025,52.607140 262.816101,54.167965 263.068909,55.535927 
	C263.335846,56.980183 264.159790,58.800076 265.307739,59.443176 
	C266.143280,59.911278 268.173706,59.058559 269.179657,58.211056 
	C270.526306,57.076473 271.287659,55.274860 272.516052,53.961433 
	C273.207123,53.222546 274.332245,52.889626 276.076538,51.921707 
	C273.699188,60.150684 268.298767,63.550362 262.000000,66.000000 
	C260.285645,66.000000 258.571289,66.000000 256.349915,65.667389 
	C253.428314,63.951893 251.013748,62.569008 248.599182,61.186123 
	C249.344604,60.777195 250.090012,60.368267 250.835434,59.959343 
	C247.223633,61.972893 243.611816,63.986446 240.000000,66.000000 
	C238.285645,66.000000 236.571289,66.000000 234.282379,65.691528 
	C231.066055,63.605572 228.424271,61.828083 225.976654,60.181240 
	C223.697388,61.510593 219.848694,63.755299 216.000000,66.000000 
	C214.285645,66.000000 212.571289,66.000000 210.303909,65.666237 
	C204.728363,62.055119 203.620148,58.856262 205.320953,52.025326 
	C206.485641,47.347565 208.115494,42.757221 208.877731,38.021626 
	C209.183380,36.122799 207.720871,33.939373 207.063171,31.885487 
	C204.864685,32.669716 202.500290,33.174847 200.531372,34.345272 
	C199.392426,35.022327 198.528732,36.674824 198.160721,38.053677 
	C195.681122,47.344379 193.367416,56.679356 191.000000,66.000000 
	C182.645767,66.000000 174.291534,66.000000 165.371429,65.675018 
	C162.685272,63.833717 160.564987,62.317398 158.548843,60.875565 
	C156.234100,62.117786 152.617050,64.058891 149.000000,66.000000 
	C147.285645,66.000000 145.571289,66.000000 143.333282,65.663712 
	C137.716980,62.401070 137.251007,57.843338 138.499878,52.778019 
	C139.770615,47.623955 141.401352,42.546577 142.399673,37.344501 
	C142.714188,35.705734 141.496536,33.772923 140.980133,31.974693 
	C139.093567,32.609051 137.099030,33.040058 135.364563,33.960907 
	C134.455460,34.443565 133.669952,35.698658 133.395325,36.752590 
	C130.859650,46.483341 128.447830,56.246361 126.000000,66.000000 
	C122.307091,66.000000 118.614182,66.000000 114.264328,65.622887 
	C115.963989,56.264969 118.516968,47.327633 120.522087,38.269024 
	C120.956337,36.307178 119.422012,33.909592 118.794418,31.712704 
	C116.862419,32.689835 114.820473,33.505352 113.045364,34.713078 
	C112.173027,35.306587 111.518410,36.554340 111.236809,37.629520 
	C108.764130,47.070526 106.397820,56.539391 104.000000,66.000000 
	C100.307091,66.000000 96.614182,66.000000 92.410965,65.623459 
	C92.189674,63.595123 92.478676,61.943340 92.755669,60.360191 
	C88.301483,62.329575 84.150742,64.164787 80.000000,66.000000 
	C77.958336,66.000000 75.916664,66.000000 73.437500,66.000000 
M254.590179,40.038185 
	C254.978912,38.600025 255.608490,37.175751 255.692429,35.720020 
	C255.786911,34.081051 255.959198,31.512104 255.080795,30.957117 
	C253.524902,29.974079 251.093597,29.697451 249.230301,30.087845 
	C247.644333,30.420135 246.082108,31.889523 244.959854,33.232338 
	C240.325058,38.778049 237.833023,45.313244 238.334702,52.478020 
	C238.506409,54.930218 240.633636,58.678425 242.551773,59.171341 
	C244.459930,59.661690 248.333359,57.372253 249.391418,55.302883 
	C251.687683,50.811813 252.737900,45.683662 254.590179,40.038185 
M82.244453,31.991358 
	C81.886444,30.537989 81.528435,29.084620 81.170418,27.631250 
	C79.425743,28.327988 77.117699,28.543610 76.037827,29.808090 
	C72.187073,34.317173 71.308174,39.879013 71.122925,46.107929 
	C77.209351,43.065315 80.221123,38.344875 82.244453,31.991358 
z"/>
<path fill="#0A0A0A" opacity="1.000000" stroke="none" 
	d="
M310.000000,66.000000 
	C307.299988,66.000000 304.599976,66.000000 301.524536,65.537094 
	C301.149109,48.184803 301.149109,31.295424 301.149109,14.310882 
	C300.323120,16.473030 299.408142,18.694078 298.620026,20.959253 
	C293.398163,35.967552 288.203491,50.985313 283.000000,66.000000 
	C282.250000,66.000000 281.500000,66.000000 280.315918,65.613480 
	C286.984222,45.102074 294.086639,24.977175 301.361145,4.364722 
	C295.878510,4.893485 291.001282,6.342033 289.289124,10.819452 
	C287.974365,14.257554 289.176849,18.658270 289.287262,23.941763 
	C287.176849,23.684637 283.278107,24.308563 280.995789,22.674639 
	C277.551544,20.208891 278.778595,15.984493 280.710266,12.687807 
	C282.019775,10.452927 283.610321,7.991387 285.727722,6.706690 
	C289.561371,4.380701 293.882446,2.858047 298.000000,1.000003 
	C303.022095,1.000000 308.044189,1.000000 313.476562,1.465737 
	C313.886871,17.590982 313.886871,33.250492 313.886871,48.990582 
	C320.674896,33.340130 327.501129,17.607658 334.298370,1.862656 
	C334.387360,1.656456 334.107635,1.291078 334.000000,0.999999 
	C338.024536,1.000000 342.049103,1.000000 346.560242,1.432398 
	C344.031250,23.243196 341.015625,44.621597 338.000000,66.000000 
	C334.307098,66.000000 330.614166,66.000000 326.573090,65.603424 
	C328.616791,48.316566 331.008667,31.426283 333.400543,14.535997 
	C332.947113,14.425926 332.493713,14.315854 332.040314,14.205783 
	C324.693542,31.470522 317.346771,48.735260 310.000000,66.000000 
z"/>
<path fill="#070707" opacity="1.000000" stroke="none" 
	d="
M36.666668,1.000000 
	C40.815430,2.203015 44.738037,3.144732 48.426369,4.657608 
	C59.892868,9.360929 63.315598,19.181753 57.523823,30.174768 
	C53.411015,37.981045 46.957638,42.829079 36.864754,46.098591 
	C39.073437,48.709087 41.455681,51.780468 44.113728,54.591007 
	C46.544441,57.161171 49.273438,59.449242 52.440800,62.390812 
	C51.664509,62.923378 49.922665,64.118347 48.090412,65.656662 
	C45.958332,66.000000 43.916668,66.000000 41.259960,65.708542 
	C35.165588,59.910736 29.686253,54.404392 23.786880,48.475937 
	C22.490131,54.476734 21.245066,60.238365 20.000000,66.000000 
	C16.307091,66.000000 12.614182,66.000000 8.302351,65.613449 
	C12.872931,45.044052 18.062431,24.861204 23.353765,4.282311 
	C10.330589,6.768604 7.332047,12.323025 12.602465,22.612347 
	C8.305079,25.152937 4.284592,25.741928 1.000000,21.000000 
	C1.000000,19.285641 1.000000,17.571283 1.310113,15.274715 
	C4.348112,8.107748 9.167409,4.103809 16.187847,2.680382 
	C17.837643,2.345878 19.398323,1.571833 21.000000,1.000000 
	C21.750000,1.000000 22.500000,1.000000 23.891163,1.311060 
	C28.021551,1.414747 31.510775,1.207373 35.000000,1.000000 
	C35.444447,1.000000 35.888889,1.000000 36.666668,1.000000 
M26.967302,44.389565 
	C38.845695,42.071537 47.976421,31.630323 48.429615,19.705381 
	C48.748459,11.315716 43.426464,3.915756 35.486523,4.774724 
	C32.177956,17.594481 28.831797,30.559893 25.267450,43.915344 
	C25.576303,44.009869 25.885159,44.104397 26.967302,44.389565 
z"/>
<path fill="#FCFCFC" opacity="1.000000" stroke="none" 
	d="
M338.468567,66.000000 
	C341.015625,44.621597 344.031250,23.243196 347.023438,1.432398 
	C359.271698,1.000000 371.543365,1.000000 384.000000,1.000000 
	C384.000000,17.687105 384.000000,34.374893 383.719666,51.740898 
	C382.023468,53.477245 380.552399,54.469765 379.202118,55.605789 
	C375.115692,59.043732 370.479584,60.733337 365.361206,58.790676 
	C360.837769,57.073826 358.454071,53.410343 358.282593,49.821644 
	C364.125061,47.281315 369.963379,45.843918 374.430115,42.547775 
	C381.490173,37.337959 379.530396,28.776592 371.294678,26.069342 
	C366.222839,24.402132 361.449951,25.149437 357.011292,28.047009 
	C341.904480,37.908749 343.450745,57.479309 360.000000,66.000000 
	C352.979034,66.000000 345.958099,66.000000 338.468567,66.000000 
z"/>
<path fill="#FAFAFA" opacity="1.000000" stroke="none" 
	d="
M297.531433,1.000003 
	C293.882446,2.858047 289.561371,4.380701 285.727722,6.706690 
	C283.610321,7.991387 282.019775,10.452927 280.710266,12.687807 
	C278.778595,15.984493 277.551544,20.208891 280.995789,22.674639 
	C283.278107,24.308563 287.176849,23.684637 289.287262,23.941763 
	C289.176849,18.658270 287.974365,14.257554 289.289124,10.819452 
	C291.001282,6.342033 295.878510,4.893485 301.361145,4.364722 
	C294.086639,24.977175 286.984222,45.102074 279.940918,65.613480 
	C274.311951,66.000000 268.623932,66.000000 262.467957,66.000000 
	C268.298767,63.550362 273.699188,60.150684 276.076538,51.921707 
	C274.332245,52.889626 273.207123,53.222546 272.516052,53.961433 
	C271.287659,55.274860 270.526306,57.076473 269.179657,58.211056 
	C268.173706,59.058559 266.143280,59.911278 265.307739,59.443176 
	C264.159790,58.800076 263.335846,56.980183 263.068909,55.535927 
	C262.816101,54.167965 263.357025,52.607140 263.727173,51.177280 
	C268.001801,34.664070 272.310272,18.159626 276.304871,1.326429 
	C283.020966,1.000000 290.041901,1.000000 297.531433,1.000003 
z"/>
<path fill="#080808" opacity="1.000000" stroke="none" 
	d="
M360.437500,66.000000 
	C343.450745,57.479309 341.904480,37.908749 357.011292,28.047009 
	C361.449951,25.149437 366.222839,24.402132 371.294678,26.069342 
	C379.530396,28.776592 381.490173,37.337959 374.430115,42.547775 
	C369.963379,45.843918 364.125061,47.281315 358.282593,49.821644 
	C358.454071,53.410343 360.837769,57.073826 365.361206,58.790676 
	C370.479584,60.733337 375.115692,59.043732 379.202118,55.605789 
	C380.552399,54.469765 382.023468,53.477245 383.719666,52.209557 
	C384.000000,52.750000 384.000000,53.500000 383.654724,54.628082 
	C379.286407,60.767620 373.529907,63.957512 367.000000,66.000000 
	C364.958344,66.000000 362.916656,66.000000 360.437500,66.000000 
M358.042145,42.416626 
	C358.042145,43.469666 358.042145,44.522701 358.042145,46.058987 
	C363.952667,43.035660 366.984497,38.410770 368.738861,32.984871 
	C369.235748,31.448162 368.254578,29.433559 367.951294,27.638124 
	C366.204376,28.339186 363.565460,28.559244 362.879028,29.832163 
	C360.880890,33.537678 359.664124,37.664543 358.042145,42.416626 
z"/>
<path fill="#FBFBFB" opacity="1.000000" stroke="none" 
	d="
M1.000000,21.468658 
	C4.284592,25.741928 8.305079,25.152937 12.602465,22.612347 
	C7.332047,12.323025 10.330589,6.768604 23.353765,4.282311 
	C18.062431,24.861204 12.872931,45.044052 7.841715,65.613449 
	C5.686481,66.000000 3.372961,66.000000 1.000000,66.000000 
	C1.000000,51.312485 1.000000,36.624901 1.000000,21.468658 
z"/>
<path fill="#FAFAFA" opacity="1.000000" stroke="none" 
	d="
M333.531616,0.999999 
	C334.107635,1.291078 334.387360,1.656456 334.298370,1.862656 
	C327.501129,17.607658 320.674896,33.340130 313.886871,48.990582 
	C313.886871,33.250492 313.886871,17.590982 313.943420,1.465737 
	C320.354401,1.000000 326.708801,1.000000 333.531616,0.999999 
z"/>
<path fill="#F5F5F5" opacity="1.000000" stroke="none" 
	d="
M283.467957,66.000000 
	C288.203491,50.985313 293.398163,35.967552 298.620026,20.959253 
	C299.408142,18.694078 300.323120,16.473030 301.149109,14.310882 
	C301.149109,31.295424 301.149109,48.184803 301.074554,65.537094 
	C295.311951,66.000000 289.623932,66.000000 283.467957,66.000000 
z"/>
<path fill="#F9F9F9" opacity="1.000000" stroke="none" 
	d="
M310.466858,66.000000 
	C317.346771,48.735260 324.693542,31.470522 332.040314,14.205783 
	C332.493713,14.315854 332.947113,14.425926 333.400543,14.535997 
	C331.008667,31.426283 328.616791,48.316566 326.112457,65.603424 
	C320.977905,66.000000 315.955811,66.000000 310.466858,66.000000 
z"/>
<path fill="#FAFAFA" opacity="1.000000" stroke="none" 
	d="
M191.468277,66.000000 
	C193.367416,56.679356 195.681122,47.344379 198.160721,38.053677 
	C198.528732,36.674824 199.392426,35.022327 200.531372,34.345272 
	C202.500290,33.174847 204.864685,32.669716 207.063171,31.885487 
	C207.720871,33.939373 209.183380,36.122799 208.877731,38.021626 
	C208.115494,42.757221 206.485641,47.347565 205.320953,52.025326 
	C203.620148,58.856262 204.728363,62.055119 209.875443,65.666237 
	C203.978851,66.000000 197.957703,66.000000 191.468277,66.000000 
z"/>
<path fill="#FAFAFA" opacity="1.000000" stroke="none" 
	d="
M126.467606,66.000000 
	C128.447830,56.246361 130.859650,46.483341 133.395325,36.752590 
	C133.669952,35.698658 134.455460,34.443565 135.364563,33.960907 
	C137.099030,33.040058 139.093567,32.609051 140.980133,31.974693 
	C141.496536,33.772923 142.714188,35.705734 142.399673,37.344501 
	C141.401352,42.546577 139.770615,47.623955 138.499878,52.778019 
	C137.251007,57.843338 137.716980,62.401070 142.904816,65.663712 
	C137.645065,66.000000 132.290146,66.000000 126.467606,66.000000 
z"/>
<path fill="#F8F8F8" opacity="1.000000" stroke="none" 
	d="
M104.454109,66.000000 
	C106.397820,56.539391 108.764130,47.070526 111.236809,37.629520 
	C111.518410,36.554340 112.173027,35.306587 113.045364,34.713078 
	C114.820473,33.505352 116.862419,32.689835 118.794418,31.712704 
	C119.422012,33.909592 120.956337,36.307178 120.522087,38.269024 
	C118.516968,47.327633 115.963989,56.264969 113.803696,65.622887 
	C110.969406,66.000000 107.938812,66.000000 104.454109,66.000000 
z"/>
<path fill="#F5F5F5" opacity="1.000000" stroke="none" 
	d="
M20.468533,66.000000 
	C21.245066,60.238365 22.490131,54.476734 23.786880,48.475937 
	C29.686253,54.404392 35.165588,59.910736 40.822460,65.708542 
	C34.312355,66.000000 27.624710,66.000000 20.468533,66.000000 
z"/>
<path fill="#F5F5F5" opacity="1.000000" stroke="none" 
	d="
M20.530956,1.000000 
	C19.398323,1.571833 17.837643,2.345878 16.187847,2.680382 
	C9.167409,4.103809 4.348112,8.107748 1.310113,14.846252 
	C1.000000,10.394361 1.000000,5.788721 1.000000,1.000000 
	C7.353141,1.000000 13.707527,1.000000 20.530956,1.000000 
z"/>
<path fill="#F5F5F5" opacity="1.000000" stroke="none" 
	d="
M367.470459,66.000000 
	C373.529907,63.957512 379.286407,60.767620 383.654724,55.003082 
	C384.000000,58.607876 384.000000,62.215755 384.000000,66.000000 
	C378.647827,66.000000 373.294373,66.000000 367.470459,66.000000 
z"/>
<path fill="#F2F2F2" opacity="1.000000" stroke="none" 
	d="
M216.467941,66.000000 
	C219.848694,63.755299 223.697388,61.510593 225.976654,60.181240 
	C228.424271,61.828083 231.066055,63.605572 233.853912,65.691528 
	C228.311966,66.000000 222.623917,66.000000 216.467941,66.000000 
z"/>
<path fill="#EBEBEB" opacity="1.000000" stroke="none" 
	d="
M149.466858,66.000000 
	C152.617050,64.058891 156.234100,62.117786 158.548843,60.875565 
	C160.564987,62.317398 162.685272,63.833717 164.902786,65.675018 
	C159.977905,66.000000 154.955811,66.000000 149.466858,66.000000 
z"/>
<path fill="#EDEDED" opacity="1.000000" stroke="none" 
	d="
M240.466858,66.000000 
	C243.611816,63.986446 247.223633,61.972893 250.835434,59.959343 
	C250.090012,60.368267 249.344604,60.777195 248.599182,61.186123 
	C251.013748,62.569008 253.428314,63.951893 255.921448,65.667389 
	C250.977905,66.000000 245.955811,66.000000 240.466858,66.000000 
z"/>
<path fill="#E8E8E8" opacity="1.000000" stroke="none" 
	d="
M80.460632,66.000000 
	C84.150742,64.164787 88.301483,62.329575 92.755669,60.360191 
	C92.478676,61.943340 92.189674,63.595123 91.950333,65.623459 
	C88.307091,66.000000 84.614182,66.000000 80.460632,66.000000 
z"/>
<path fill="#404040" opacity="1.000000" stroke="none" 
	d="
M34.541931,1.000000 
	C31.510775,1.207373 28.021551,1.414747 24.266163,1.311060 
	C27.361288,1.000000 30.722574,1.000000 34.541931,1.000000 
z"/>
<path fill="#0A0A0A" opacity="1.000000" stroke="none" 
	d="
M172.492233,7.574716 
	C176.719162,5.333227 179.943985,6.218101 181.946777,10.079060 
	C183.798920,13.649529 182.355804,16.630304 179.046753,18.386265 
	C175.870636,20.071676 172.862930,19.245934 170.862823,16.186634 
	C168.850937,13.109325 169.506927,10.251244 172.492233,7.574716 
z"/>
<path fill="#F6F6F6" opacity="1.000000" stroke="none" 
	d="
M254.443878,40.427086 
	C252.737900,45.683662 251.687683,50.811813 249.391418,55.302883 
	C248.333359,57.372253 244.459930,59.661690 242.551773,59.171341 
	C240.633636,58.678425 238.506409,54.930218 238.334702,52.478020 
	C237.833023,45.313244 240.325058,38.778049 244.959854,33.232338 
	C246.082108,31.889523 247.644333,30.420135 249.230301,30.087845 
	C251.093597,29.697451 253.524902,29.974079 255.080795,30.957117 
	C255.959198,31.512104 255.786911,34.081051 255.692429,35.720020 
	C255.608490,37.175751 254.978912,38.600025 254.443878,40.427086 
z"/>
<path fill="#F1F1F1" opacity="1.000000" stroke="none" 
	d="
M82.181763,32.355003 
	C80.221123,38.344875 77.209351,43.065315 71.122925,46.107929 
	C71.308174,39.879013 72.187073,34.317173 76.037827,29.808090 
	C77.117699,28.543610 79.425743,28.327988 81.170425,27.631248 
	C81.528435,29.084620 81.886444,30.537989 82.181763,32.355003 
z"/>
<path fill="#FAFAFA" opacity="1.000000" stroke="none" 
	d="
M25.485640,43.525307 
	C28.831797,30.559893 32.177956,17.594481 35.486523,4.774724 
	C43.426464,3.915756 48.748459,11.315716 48.429615,19.705381 
	C47.976421,31.630323 38.845695,42.071537 26.407394,44.121811 
	C25.847486,43.854057 25.485640,43.525307 25.485640,43.525307 
z"/>
<path fill="#FAFAFA" opacity="1.000000" stroke="none" 
	d="
M26.020748,44.026489 
	C25.885159,44.104397 25.576303,44.009869 25.376545,43.720325 
	C25.485640,43.525307 25.847486,43.854057 26.020748,44.026489 
z"/>
<path fill="#F4F4F4" opacity="1.000000" stroke="none" 
	d="
M358.091553,42.021393 
	C359.664124,37.664543 360.880890,33.537678 362.879028,29.832163 
	C363.565460,28.559244 366.204376,28.339186 367.951294,27.638126 
	C368.254578,29.433559 369.235748,31.448162 368.738861,32.984871 
	C366.984497,38.410770 363.952667,43.035660 358.042145,46.058987 
	C358.042145,44.522701 358.042145,43.469666 358.091553,42.021393 
z"/>
</svg>